<mxfile host="app.diagrams.net" modified="2021-05-14T10:05:02.356Z" agent="5.0 (Windows NT 10.0; Win64; x64) AppleWebKit/537.36 (KHTML, like Gecko) Chrome/85.0.4183.121 Safari/537.36" etag="JCa-o3EPPSwfuEq-bQKG" version="14.6.13" type="github">
  <diagram id="iS0me-Ns1x_0J2nKeiE9" name="Page-1">
    <mxGraphModel dx="907" dy="674" grid="1" gridSize="10" guides="1" tooltips="1" connect="1" arrows="1" fold="1" page="1" pageScale="1" pageWidth="850" pageHeight="1100" math="0" shadow="0">
      <root>
        <mxCell id="0" />
        <mxCell id="1" parent="0" />
        <mxCell id="E3McLMvc3VZBF1GsloLp-1" value="Product" style="swimlane;fontStyle=3;align=center;verticalAlign=top;childLayout=stackLayout;horizontal=1;startSize=50;horizontalStack=0;resizeParent=1;resizeParentMax=0;resizeLast=0;collapsible=1;marginBottom=0;" vertex="1" parent="1">
          <mxGeometry x="50" y="60" width="160" height="52" as="geometry" />
        </mxCell>
        <mxCell id="E3McLMvc3VZBF1GsloLp-17" value="ProductFactory" style="swimlane;fontStyle=1;align=center;verticalAlign=top;childLayout=stackLayout;horizontal=1;startSize=34;horizontalStack=0;resizeParent=1;resizeParentMax=0;resizeLast=0;collapsible=1;marginBottom=0;" vertex="1" parent="1">
          <mxGeometry x="570" y="90" width="240" height="34" as="geometry" />
        </mxCell>
        <mxCell id="E3McLMvc3VZBF1GsloLp-20" value="ProductBuilder" style="swimlane;fontStyle=1;align=center;verticalAlign=top;childLayout=stackLayout;horizontal=1;startSize=32;horizontalStack=0;resizeParent=1;resizeParentMax=0;resizeLast=0;collapsible=1;marginBottom=0;" vertex="1" parent="1">
          <mxGeometry x="270" y="78" width="250" height="34" as="geometry" />
        </mxCell>
        <mxCell id="E3McLMvc3VZBF1GsloLp-25" style="edgeStyle=orthogonalEdgeStyle;rounded=0;orthogonalLoop=1;jettySize=auto;html=1;exitX=0;exitY=0.5;exitDx=0;exitDy=0;entryX=1;entryY=0.5;entryDx=0;entryDy=0;dashed=1;" edge="1" parent="1">
          <mxGeometry relative="1" as="geometry">
            <mxPoint x="570" y="107" as="sourcePoint" />
            <mxPoint x="520" y="107" as="targetPoint" />
          </mxGeometry>
        </mxCell>
        <mxCell id="E3McLMvc3VZBF1GsloLp-26" style="edgeStyle=orthogonalEdgeStyle;rounded=0;orthogonalLoop=1;jettySize=auto;html=1;endArrow=classic;endFill=1;entryX=1;entryY=0.5;entryDx=0;entryDy=0;dashed=1;" edge="1" parent="1">
          <mxGeometry relative="1" as="geometry">
            <mxPoint x="270" y="99" as="sourcePoint" />
            <mxPoint x="210" y="99.00000000000011" as="targetPoint" />
            <Array as="points">
              <mxPoint x="267" y="99" />
              <mxPoint x="267" y="99" />
            </Array>
          </mxGeometry>
        </mxCell>
        <mxCell id="E3McLMvc3VZBF1GsloLp-27" style="edgeStyle=orthogonalEdgeStyle;rounded=0;orthogonalLoop=1;jettySize=auto;html=1;exitX=0.5;exitY=0;exitDx=0;exitDy=0;entryX=0.498;entryY=0.966;entryDx=0;entryDy=0;entryPerimeter=0;dashed=1;endArrow=none;endFill=0;startArrow=classic;startFill=1;" edge="1" parent="1" source="E3McLMvc3VZBF1GsloLp-28">
          <mxGeometry relative="1" as="geometry">
            <mxPoint x="689.52" y="119.11599999999987" as="targetPoint" />
          </mxGeometry>
        </mxCell>
        <mxCell id="E3McLMvc3VZBF1GsloLp-28" value="&lt;&lt;enum&gt;&gt;&#xa;PRODUCT_TYPE" style="swimlane;fontStyle=1;align=center;verticalAlign=top;childLayout=stackLayout;horizontal=1;startSize=48;horizontalStack=0;resizeParent=1;resizeParentMax=0;resizeLast=0;collapsible=1;marginBottom=0;" vertex="1" parent="1">
          <mxGeometry x="600" y="180" width="180" height="48" as="geometry" />
        </mxCell>
        <mxCell id="E3McLMvc3VZBF1GsloLp-32" style="edgeStyle=orthogonalEdgeStyle;rounded=0;orthogonalLoop=1;jettySize=auto;html=1;exitX=0.5;exitY=0;exitDx=0;exitDy=0;entryX=0.5;entryY=1;entryDx=0;entryDy=0;entryPerimeter=0;endArrow=block;endFill=0;" edge="1" parent="1" source="E3McLMvc3VZBF1GsloLp-33">
          <mxGeometry relative="1" as="geometry">
            <mxPoint x="130" y="112.00000000000011" as="targetPoint" />
          </mxGeometry>
        </mxCell>
        <mxCell id="E3McLMvc3VZBF1GsloLp-33" value="NonPerishableProduct" style="swimlane;fontStyle=1;align=center;verticalAlign=top;childLayout=stackLayout;horizontal=1;startSize=50;horizontalStack=0;resizeParent=1;resizeParentMax=0;resizeLast=0;collapsible=1;marginBottom=0;" vertex="1" parent="1">
          <mxGeometry x="50" y="250" width="160" height="52" as="geometry" />
        </mxCell>
        <mxCell id="E3McLMvc3VZBF1GsloLp-38" style="edgeStyle=orthogonalEdgeStyle;rounded=0;orthogonalLoop=1;jettySize=auto;html=1;exitX=0.5;exitY=0;exitDx=0;exitDy=0;endArrow=none;endFill=0;" edge="1" parent="1" source="E3McLMvc3VZBF1GsloLp-39">
          <mxGeometry relative="1" as="geometry">
            <mxPoint x="130" y="210" as="targetPoint" />
            <Array as="points">
              <mxPoint x="320" y="210" />
            </Array>
          </mxGeometry>
        </mxCell>
        <mxCell id="E3McLMvc3VZBF1GsloLp-39" value="PerishableProduct" style="swimlane;fontStyle=1;align=center;verticalAlign=top;childLayout=stackLayout;horizontal=1;startSize=50;horizontalStack=0;resizeParent=1;resizeParentMax=0;resizeLast=0;collapsible=1;marginBottom=0;" vertex="1" parent="1">
          <mxGeometry x="240" y="250" width="160" height="52" as="geometry" />
        </mxCell>
      </root>
    </mxGraphModel>
  </diagram>
</mxfile>
